<svg xmlns="http://www.w3.org/2000/svg" viewBox="0 0 64 64" fill="none">
  <rect width="64" height="64" rx="14" fill="#0D0D0D"/>
  <rect x="1.5" y="1.5" width="61" height="61" rx="12.5" stroke="#C9A75D" stroke-width="1.5" stroke-opacity="0.5"/>
  <g transform="translate(32, 33)">
    <path d="M0,7 L0,22" stroke="#C9A75D" stroke-width="2.2" stroke-linecap="round"/>
    <circle cx="0" cy="22" r="1.5" fill="#DFBF7A"/>
    <path d="M-8,-6 Q-8,6 0,7 Q8,6 8,-6" stroke="#C9A75D" stroke-width="2" fill="none" stroke-linejoin="round"/>
    <path d="M-8,-19 L-8,-5" stroke="#DFBF7A" stroke-width="2" stroke-linecap="round"/>
    <path d="M-2.7,-20 L-2.7,-3" stroke="#DFBF7A" stroke-width="2" stroke-linecap="round"/>
    <path d="M2.7,-20 L2.7,-3" stroke="#DFBF7A" stroke-width="2" stroke-linecap="round"/>
    <path d="M8,-19 L8,-5" stroke="#DFBF7A" stroke-width="2" stroke-linecap="round"/>
    <path d="M-13,-14 Q-10,-14 -10,-17 Q-10,-14 -7,-14 Q-10,-14 -10,-11 Q-10,-14 -13,-14 Z" fill="#C9A75D"/>
  </g>
</svg>
